{
    "asset" : {
        "generator" : "Khronos glTF Blender I/O v1.5.1",
        "version" : "2.0"
    },
    "scene" : 0,
    "scenes" : [
        {
            "name" : "Scene",
            "nodes" : [
                0,
                1,
                2,
                3,
                4,
                5
            ]
        }
    ],
    "nodes" : [
        {
            "mesh" : 0,
            "name" : "Cylinder",
            "scale" : [
                1,
                0.06648242473602295,
                1
            ],
            "translation" : [
                0.49760377407073975,
                1.89650297164917,
                -0.08298495411872864
            ]
        },
        {
            "mesh" : 1,
            "name" : "Cone",
            "rotation" : [
                0.7152814865112305,
                -0.6906135678291321,
                0.1040196418762207,
                -0.024604231119155884
            ],
            "scale" : [
                -0.15868054330348969,
                2.7638895511627197,
                1.1026586294174194
            ],
            "translation" : [
                2.621593952178955,
                1.949544072151184,
                0.3830077052116394
            ]
        },
        {
            "mesh" : 2,
            "name" : "Cone.001",
            "rotation" : [
                0.6040173768997192,
                -0.5328524112701416,
                -0.3970019519329071,
                0.4400235414505005
            ],
            "scale" : [
                -0.15868054330348969,
                2.7638895511627197,
                1.1026586294174194
            ],
            "translation" : [
                1.145639419555664,
                1.9578447341918945,
                -2.395134687423706
            ]
        },
        {
            "mesh" : 3,
            "name" : "Cone.002",
            "rotation" : [
                0.5815715789794922,
                -0.5972937345504761,
                0.4292111098766327,
                -0.34755247831344604
            ],
            "scale" : [
                -0.15868054330348969,
                2.7638895511627197,
                1.1026586294174194
            ],
            "translation" : [
                1.5403244495391846,
                1.9704028367996216,
                2.5392353534698486
            ]
        },
        {
            "mesh" : 4,
            "name" : "Cone.003",
            "rotation" : [
                0.13329029083251953,
                -0.20043301582336426,
                0.7104092240333557,
                -0.6613463759422302
            ],
            "scale" : [
                -0.15868054330348969,
                2.7638895511627197,
                1.1026586294174194
            ],
            "translation" : [
                -1.9080166816711426,
                1.9672293663024902,
                1.2828600406646729
            ]
        },
        {
            "mesh" : 5,
            "name" : "Cone.004",
            "rotation" : [
                0.2860451340675354,
                -0.20294906198978424,
                -0.6637964844703674,
                0.6605786085128784
            ],
            "scale" : [
                -0.15868054330348969,
                2.7638895511627197,
                1.1026586294174194
            ],
            "translation" : [
                -1.4414453506469727,
                1.9592245817184448,
                -1.6067583560943604
            ]
        }
    ],
    "meshes" : [
        {
            "name" : "Cylinder",
            "primitives" : [
                {
                    "attributes" : {
                        "POSITION" : 0,
                        "NORMAL" : 1,
                        "TEXCOORD_0" : 2
                    },
                    "indices" : 3
                }
            ]
        },
        {
            "name" : "Cone",
            "primitives" : [
                {
                    "attributes" : {
                        "POSITION" : 4,
                        "NORMAL" : 5,
                        "TEXCOORD_0" : 6
                    },
                    "indices" : 7
                }
            ]
        },
        {
            "name" : "Cone.001",
            "primitives" : [
                {
                    "attributes" : {
                        "POSITION" : 8,
                        "NORMAL" : 9,
                        "TEXCOORD_0" : 10
                    },
                    "indices" : 7
                }
            ]
        },
        {
            "name" : "Cone.002",
            "primitives" : [
                {
                    "attributes" : {
                        "POSITION" : 11,
                        "NORMAL" : 12,
                        "TEXCOORD_0" : 13
                    },
                    "indices" : 7
                }
            ]
        },
        {
            "name" : "Cone.003",
            "primitives" : [
                {
                    "attributes" : {
                        "POSITION" : 14,
                        "NORMAL" : 15,
                        "TEXCOORD_0" : 16
                    },
                    "indices" : 7
                }
            ]
        },
        {
            "name" : "Cone.004",
            "primitives" : [
                {
                    "attributes" : {
                        "POSITION" : 17,
                        "NORMAL" : 18,
                        "TEXCOORD_0" : 19
                    },
                    "indices" : 7
                }
            ]
        }
    ],
    "accessors" : [
        {
            "bufferView" : 0,
            "componentType" : 5126,
            "count" : 192,
            "max" : [
                1,
                1,
                1
            ],
            "min" : [
                -1,
                -1,
                -1
            ],
            "type" : "VEC3"
        },
        {
            "bufferView" : 1,
            "componentType" : 5126,
            "count" : 192,
            "type" : "VEC3"
        },
        {
            "bufferView" : 2,
            "componentType" : 5126,
            "count" : 192,
            "type" : "VEC2"
        },
        {
            "bufferView" : 3,
            "componentType" : 5123,
            "count" : 372,
            "type" : "SCALAR"
        },
        {
            "bufferView" : 4,
            "componentType" : 5126,
            "count" : 128,
            "max" : [
                1,
                1,
                1
            ],
            "min" : [
                -1,
                -1,
                -1
            ],
            "type" : "VEC3"
        },
        {
            "bufferView" : 5,
            "componentType" : 5126,
            "count" : 128,
            "type" : "VEC3"
        },
        {
            "bufferView" : 6,
            "componentType" : 5126,
            "count" : 128,
            "type" : "VEC2"
        },
        {
            "bufferView" : 7,
            "componentType" : 5123,
            "count" : 186,
            "type" : "SCALAR"
        },
        {
            "bufferView" : 8,
            "componentType" : 5126,
            "count" : 128,
            "max" : [
                1,
                1,
                1
            ],
            "min" : [
                -1,
                -1,
                -1
            ],
            "type" : "VEC3"
        },
        {
            "bufferView" : 9,
            "componentType" : 5126,
            "count" : 128,
            "type" : "VEC3"
        },
        {
            "bufferView" : 10,
            "componentType" : 5126,
            "count" : 128,
            "type" : "VEC2"
        },
        {
            "bufferView" : 11,
            "componentType" : 5126,
            "count" : 128,
            "max" : [
                1,
                1,
                1
            ],
            "min" : [
                -1,
                -1,
                -1
            ],
            "type" : "VEC3"
        },
        {
            "bufferView" : 12,
            "componentType" : 5126,
            "count" : 128,
            "type" : "VEC3"
        },
        {
            "bufferView" : 13,
            "componentType" : 5126,
            "count" : 128,
            "type" : "VEC2"
        },
        {
            "bufferView" : 14,
            "componentType" : 5126,
            "count" : 128,
            "max" : [
                1,
                1,
                1
            ],
            "min" : [
                -1,
                -1,
                -1
            ],
            "type" : "VEC3"
        },
        {
            "bufferView" : 15,
            "componentType" : 5126,
            "count" : 128,
            "type" : "VEC3"
        },
        {
            "bufferView" : 16,
            "componentType" : 5126,
            "count" : 128,
            "type" : "VEC2"
        },
        {
            "bufferView" : 17,
            "componentType" : 5126,
            "count" : 128,
            "max" : [
                1,
                1,
                1
            ],
            "min" : [
                -1,
                -1,
                -1
            ],
            "type" : "VEC3"
        },
        {
            "bufferView" : 18,
            "componentType" : 5126,
            "count" : 128,
            "type" : "VEC3"
        },
        {
            "bufferView" : 19,
            "componentType" : 5126,
            "count" : 128,
            "type" : "VEC2"
        }
    ],
    "bufferViews" : [
        {
            "buffer" : 0,
            "byteLength" : 2304,
            "byteOffset" : 0
        },
        {
            "buffer" : 0,
            "byteLength" : 2304,
            "byteOffset" : 2304
        },
        {
            "buffer" : 0,
            "byteLength" : 1536,
            "byteOffset" : 4608
        },
        {
            "buffer" : 0,
            "byteLength" : 744,
            "byteOffset" : 6144
        },
        {
            "buffer" : 0,
            "byteLength" : 1536,
            "byteOffset" : 6888
        },
        {
            "buffer" : 0,
            "byteLength" : 1536,
            "byteOffset" : 8424
        },
        {
            "buffer" : 0,
            "byteLength" : 1024,
            "byteOffset" : 9960
        },
        {
            "buffer" : 0,
            "byteLength" : 372,
            "byteOffset" : 10984
        },
        {
            "buffer" : 0,
            "byteLength" : 1536,
            "byteOffset" : 11356
        },
        {
            "buffer" : 0,
            "byteLength" : 1536,
            "byteOffset" : 12892
        },
        {
            "buffer" : 0,
            "byteLength" : 1024,
            "byteOffset" : 14428
        },
        {
            "buffer" : 0,
            "byteLength" : 1536,
            "byteOffset" : 15452
        },
        {
            "buffer" : 0,
            "byteLength" : 1536,
            "byteOffset" : 16988
        },
        {
            "buffer" : 0,
            "byteLength" : 1024,
            "byteOffset" : 18524
        },
        {
            "buffer" : 0,
            "byteLength" : 1536,
            "byteOffset" : 19548
        },
        {
            "buffer" : 0,
            "byteLength" : 1536,
            "byteOffset" : 21084
        },
        {
            "buffer" : 0,
            "byteLength" : 1024,
            "byteOffset" : 22620
        },
        {
            "buffer" : 0,
            "byteLength" : 1536,
            "byteOffset" : 23644
        },
        {
            "buffer" : 0,
            "byteLength" : 1536,
            "byteOffset" : 25180
        },
        {
            "buffer" : 0,
            "byteLength" : 1024,
            "byteOffset" : 26716
        }
    ],
    "buffers" : [
        {
            "byteLength" : 27740,
            "uri" : "data:application/octet-stream;base64,"
        }
    ]
}
