{
    "asset" : {
        "generator" : "Khronos glTF Blender I/O v1.5.1",
        "version" : "2.0"
    },
    "scene" : 0,
    "scenes" : [
        {
            "name" : "Scene",
            "nodes" : [
                0
            ]
        }
    ],
    "nodes" : [
        {
            "mesh" : 0,
            "name" : "Cube",
            "scale" : [
                11.06403636932373,
                2.5073723793029785,
                11.70405387878418
            ],
            "translation" : [
                0,
                5.870905876159668,
                0
            ]
        }
    ],
    "materials" : [
        {
            "doubleSided" : true,
            "name" : "Material.005",
            "pbrMetallicRoughness" : {
                "baseColorFactor" : [
                    0.800000011920929,
                    0.800000011920929,
                    0.800000011920929,
                    1
                ],
                "metallicFactor" : 0,
                "roughnessFactor" : 0.5
            }
        },
        {
            "doubleSided" : true,
            "name" : "Material.006",
            "pbrMetallicRoughness" : {
                "baseColorFactor" : [
                    0.8000000715255737,
                    0.3091793656349182,
                    0.32258495688438416,
                    1
                ],
                "metallicFactor" : 0,
                "roughnessFactor" : 0.5
            }
        },
        {
            "doubleSided" : true,
            "name" : "Material.007",
            "pbrMetallicRoughness" : {
                "baseColorFactor" : [
                    0.1511242836713791,
                    0.21066589653491974,
                    0.8000000715255737,
                    1
                ],
                "metallicFactor" : 0,
                "roughnessFactor" : 0.5
            }
        }
    ],
    "meshes" : [
        {
            "name" : "Cube.001",
            "primitives" : [
                {
                    "attributes" : {
                        "POSITION" : 0,
                        "NORMAL" : 1,
                        "TEXCOORD_0" : 2
                    },
                    "indices" : 3,
                    "material" : 0
                },
                {
                    "attributes" : {
                        "POSITION" : 4,
                        "NORMAL" : 5,
                        "TEXCOORD_0" : 6
                    },
                    "indices" : 7,
                    "material" : 1
                },
                {
                    "attributes" : {
                        "POSITION" : 8,
                        "NORMAL" : 9,
                        "TEXCOORD_0" : 10
                    },
                    "indices" : 11,
                    "material" : 2
                }
            ]
        }
    ],
    "accessors" : [
        {
            "bufferView" : 0,
            "componentType" : 5126,
            "count" : 568,
            "max" : [
                2.7792046070098877,
                4.590846538543701,
                2.7792043685913086
            ],
            "min" : [
                -2.7792046070098877,
                -3.5549097061157227,
                -2.7792043685913086
            ],
            "type" : "VEC3"
        },
        {
            "bufferView" : 1,
            "componentType" : 5126,
            "count" : 568,
            "type" : "VEC3"
        },
        {
            "bufferView" : 2,
            "componentType" : 5126,
            "count" : 568,
            "type" : "VEC2"
        },
        {
            "bufferView" : 3,
            "componentType" : 5123,
            "count" : 1548,
            "type" : "SCALAR"
        },
        {
            "bufferView" : 4,
            "componentType" : 5126,
            "count" : 1293,
            "max" : [
                2.015388250350952,
                0.47586488723754883,
                2.015388250350952
            ],
            "min" : [
                -2.015388250350952,
                -3.5549097061157227,
                -2.015388250350952
            ],
            "type" : "VEC3"
        },
        {
            "bufferView" : 5,
            "componentType" : 5126,
            "count" : 1293,
            "type" : "VEC3"
        },
        {
            "bufferView" : 6,
            "componentType" : 5126,
            "count" : 1293,
            "type" : "VEC2"
        },
        {
            "bufferView" : 7,
            "componentType" : 5123,
            "count" : 3972,
            "type" : "SCALAR"
        },
        {
            "bufferView" : 8,
            "componentType" : 5126,
            "count" : 56,
            "max" : [
                2.7792046070098877,
                4.590846538543701,
                2.7792043685913086
            ],
            "min" : [
                -2.7792046070098877,
                0.4591274559497833,
                -2.7792043685913086
            ],
            "type" : "VEC3"
        },
        {
            "bufferView" : 9,
            "componentType" : 5126,
            "count" : 56,
            "type" : "VEC3"
        },
        {
            "bufferView" : 10,
            "componentType" : 5126,
            "count" : 56,
            "type" : "VEC2"
        },
        {
            "bufferView" : 11,
            "componentType" : 5123,
            "count" : 72,
            "type" : "SCALAR"
        }
    ],
    "bufferViews" : [
        {
            "buffer" : 0,
            "byteLength" : 6816,
            "byteOffset" : 0
        },
        {
            "buffer" : 0,
            "byteLength" : 6816,
            "byteOffset" : 6816
        },
        {
            "buffer" : 0,
            "byteLength" : 4544,
            "byteOffset" : 13632
        },
        {
            "buffer" : 0,
            "byteLength" : 3096,
            "byteOffset" : 18176
        },
        {
            "buffer" : 0,
            "byteLength" : 15516,
            "byteOffset" : 21272
        },
        {
            "buffer" : 0,
            "byteLength" : 15516,
            "byteOffset" : 36788
        },
        {
            "buffer" : 0,
            "byteLength" : 10344,
            "byteOffset" : 52304
        },
        {
            "buffer" : 0,
            "byteLength" : 7944,
            "byteOffset" : 62648
        },
        {
            "buffer" : 0,
            "byteLength" : 672,
            "byteOffset" : 70592
        },
        {
            "buffer" : 0,
            "byteLength" : 672,
            "byteOffset" : 71264
        },
        {
            "buffer" : 0,
            "byteLength" : 448,
            "byteOffset" : 71936
        },
        {
            "buffer" : 0,
            "byteLength" : 144,
            "byteOffset" : 72384
        }
    ],
    "buffers" : [
        {
            "byteLength" : 72528,
            "uri" : "data:application/octet-stream;base64,"
        }
    ]
}
